# xmcd CD database file
#
# Track frame offsets:
#	150
#	11857
#	37957
#	58037
#	76920
#	91685
#	110277
#	135757
#	154219
#	167484
#	186010
#	197178
#	213850
#	236103
#	250521
#	283980
#
# Disc length: 3993 seconds
#
# Revision: 0
# Processed by: cddbd v1.5.1PL0 Copyright (c) Steve Scherf et al.
# Submitted via: CDex 1.51
#
DISCID=cb0f9710
DTITLE=EZ Listening Music - EZ Listening Music 1
DYEAR=2004
DGENRE=New Age
TTITLE0=Summer (Hisaishi Joe)
TTITLE1=Somewhere over the rainbow (Toots Thielemans)
TTITLE2=Memory (Julian Lloyd Webber)
TTITLE3=Heaven (Ronan Hardiman)
TTITLE4=Children of Sanchez (Chuck Mangione)
TTITLE5=Lullaby (Goran Bregovic)
TTITLE6=I will wait for you (Michel Legrand)
TTITLE7=Pelagia's song (Stephen Warbeck)
TTITLE8=Out of Africa Love Theme (The Boston Pops and John Barry)
TTITLE9=Braveheart - Main Theme (London Sym and James Horner)
TTITLE10=Dances with Wolves - John Dunbar Theme (Hollywood Bown and John Mauceri)
TTITLE11=Romeo and Juliet - Love Theme (Andre Rieu)
TTITLE12=A Beautiful Mind (James Horner)
TTITLE13=The God Father Part III (The National Philharmonic and Mascagni)
TTITLE14=Platoon - Adagio (St. Martin in the fields and Samuel Barber)
TTITLE15=Hana-Bi (Hisaishi Joe)
EXTD=YEAR: 2004
EXTT0=
EXTT1=
EXTT2=
EXTT3=
EXTT4=
EXTT5=
EXTT6=
EXTT7=
EXTT8=
EXTT9=
EXTT10=
EXTT11=
EXTT12=
EXTT13=
EXTT14=
EXTT15=
PLAYORDER=
